<?xml version="1.0" encoding="UTF-8" standalone="no"?>
<!DOCTYPE svg PUBLIC "-//W3C//DTD SVG 1.1//EN" "http://www.w3.org/Graphics/SVG/1.1/DTD/svg11.dtd">
<svg width="100%" height="100%" viewBox="0 0 64 64" version="1.1" xmlns="http://www.w3.org/2000/svg" xmlns:xlink="http://www.w3.org/1999/xlink" xml:space="preserve" xmlns:serif="http://www.serif.com/" style="fill-rule:evenodd;clip-rule:evenodd;stroke-linejoin:round;stroke-miterlimit:2;">
    <g>
        <g>
            <g transform="matrix(1.1227,0,0,1,-4.84254,47.9709)">
                <rect x="4.313" y="9.035" width="57.005" height="6.995" style="fill:rgb(33,33,33);"/>
            </g>
            <g transform="matrix(1.1227,0,0,0.716667,-4.84254,43.5124)">
                <rect x="4.313" y="9.035" width="57.005" height="6.995" style="fill:rgb(255,102,0);"/>
            </g>
            <g transform="matrix(1.1227,0,0,0.716667,-4.84254,43.5124)">
                <rect x="4.313" y="9.035" width="57.005" height="6.995" style="fill:rgb(42,86,62);"/>
            </g>
        </g>
        <g transform="matrix(-1,-1.22465e-16,1.22465e-16,-1,64,64)">
            <g transform="matrix(1.1227,0,0,1,-4.84254,47.9709)">
                <rect x="4.313" y="9.035" width="57.005" height="6.995" style="fill:rgb(33,33,33);"/>
            </g>
            <g transform="matrix(1.1227,0,0,0.716667,-4.84254,43.5124)">
                <rect x="4.313" y="9.035" width="57.005" height="6.995" style="fill:rgb(42,86,62);"/>
            </g>
        </g>
        <g transform="matrix(0.616475,0,0,0.616475,5.9113,24.4554)">
            <g transform="matrix(50.6914,0,0,50.6914,83.2272,29.1439)">
            </g>
            <text x="4.605px" y="29.144px" style="font-family:'HandelGotD-Bold', 'Handel Gothic D';font-weight:700;font-size:50.691px;">XFI</text>
        </g>
    </g>
</svg>
